Format                                   : Matroska
Format version                           : Version 2
File size                                : 3.34 GiB
Duration                                 : 2h 4mn
Overall bit rate                         : 3 834 Kbps
Writing application                      : HandBrake 0.9.6
Writing library                          : libmkv 0.6.5

Video
ID                                       : 1
Format                                   : AVC
Format/Info                              : Advanced Video Codec
Format profile                           : Main@L3.1
Format settings, CABAC                   : Yes
Format settings, ReFrames                : 4 frames
Codec ID                                 : V_MPEG4/ISO/AVC
Duration                                 : 2h 4mn
Bit rate                                 : 3 117 Kbps
Nominal bit rate                         : 3 300 Kbps
Width                                    : 1 280 pixels
Height                                   : 544 pixels
Display aspect ratio                     : 2.35:1
Frame rate mode                          : Constant
Frame rate                               : 24.000 fps
Color space                              : YUV
Chroma subsampling                       : 4:2:0
Bit depth                                : 8 bits
Scan type                                : Progressive
Bits/(Pixel*Frame)                       : 0.187
Stream size                              : 2.72 GiB (81%)
Writing library                          : x264 core 120
Encoding settings                        : cabac=1 / ref=1 / deblock=1:0:0 / analyse=0x1:0x111 / me=hex / subme=2 / psy=1 / psy_rd=1.00:0.00 / mixed_ref=0 / me_range=16 / chroma_me=1 / trellis=0 / 8x8dct=0 / cqm=0 / deadzone=21,11 / fast_pskip=1 / chroma_qp_offset=0 / threads=12 / sliced_threads=0 / nr=0 / decimate=1 / interlaced=0 / bluray_compat=0 / constrained_intra=0 / bframes=3 / b_pyramid=2 / b_adapt=1 / b_bias=0 / direct=1 / weightb=1 / open_gop=0 / weightp=1 / keyint=240 / keyint_min=24 / scenecut=40 / intra_refresh=0 / rc_lookahead=10 / rc=abr / mbtree=1 / bitrate=3300 / ratetol=1.0 / qcomp=0.60 / qpmin=3 / qpmax=69 / qpstep=4 / ip_ratio=1.40 / aq=1:1.00
Language                                 : English
Default                                  : Yes
Forced                                   : No
Color primaries                          : BT.709
Transfer characteristics                 : BT.709
Matrix coefficients                      : BT.709

Audio
ID                                       : 2
Format                                   : AC-3
Format/Info                              : Audio Coding 3
Mode extension                           : CM (complete main)
Format settings, Endianness              : Big
Codec ID                                 : A_AC3
Duration                                 : 2h 4mn
Bit rate mode                            : Constant
Bit rate                                 : 640 Kbps
Channel(s)                               : 6 channels
Channel positions                        : Front: L C R, Side: L R, LFE
Sampling rate                            : 48.0 KHz
Bit depth                                : 16 bits
Compression mode                         : Lossy
Stream size                              : 572 MiB (17%)
Language                                 : English
Default                                  : Yes
Forced                                   : No

Menu
00:00:00.000                             : Chapter 1
00:09:49.125                             : Chapter 2
00:18:38.250                             : Chapter 3
00:28:55.916                             : Chapter 4
00:34:04.000                             : Chapter 5
00:47:14.166                             : Chapter 6
00:55:48.375                             : Chapter 7
01:04:25.708                             : Chapter 8
01:12:10.583                             : Chapter 9
01:24:34.000                             : Chapter 10
01:32:49.541                             : Chapter 11
01:44:39.083                             : Chapter 12
02:02:08.208                             : Chapter 13